# xmcd CD database file
#
# Track frame offsets:
#	150
#	15867
#	30698
#	48851
#	61129
#	75561
#	92421
#	110593
#	129373
#	145986
#	164312
#	178633
#
# Disc length: 2576 seconds
#
# Revision: 0
# Processed by: cddbd v1.5.2PL0 Copyright (c) Steve Scherf et al.
# Submitted via: CDex 2.06
#
DISCID=890a0e0c
DTITLE=Drake White - Spark
DYEAR=2016
DGENRE=Country
TTITLE0=Heartbeat
TTITLE1=Story
TTITLE2=Makin' Me Look Good Again
TTITLE3=It Feels Good
TTITLE4=Livin' the Dream
TTITLE5=I Need Real
TTITLE6=Back to Free
TTITLE7=Equator
TTITLE8=Live Some
TTITLE9=Waitin' on the Whiskey to work
TTITLE10=Elvis
TTITLE11=Take me as I am
EXTD=YEAR: 2016
EXTT0=
EXTT1=
EXTT2=
EXTT3=
EXTT4=
EXTT5=
EXTT6=
EXTT7=
EXTT8=
EXTT9=
EXTT10=
EXTT11=
PLAYORDER=
